<?xml version="1.0" encoding="UTF-8"?>
<svg id="Layer_2" data-name="Layer 2" xmlns="http://www.w3.org/2000/svg" viewBox="0 0 20.68 20.68">
  <defs>
    <style>
      .cls-1 {
        fill: #0210de;
      }
    </style>
  </defs>
  <g id="Layer_1-2" data-name="Layer 1">
    <path class="cls-1" d="M20.63,9.4c-.03-.44-.1-.88-.2-1.32-.26-1.17-.73-2.29-1.37-3.3-1.46-2.29-3.85-3.97-6.5-4.53-.39-.09-.79-.15-1.18-.19C10.84,0,10.31-.01,9.79.02c-.43.01-.86.07-1.28.15-.39.05-.76.16-1.14.26-.35.11-.7.23-1.04.38-.32.14-.64.29-.95.46-.3.16-.6.35-.88.54-.07.05-.14.1-.22.14-.71-.54-1.42-1.06-2.17-1.55-.2-.13-.4-.27-.63-.35-.38-.13-.82-.03-1.11.24C.09.55-.03.93,0,1.3c0,.49,0,.99,0,1.48,0,.5,0,1,0,1.49,0,.5,0,.99,0,1.49C0,6.34,0,6.92,0,7.5c0,.56,0,1.12,0,1.69,0,.7-.03,1.41.05,2.11.06.72.2,1.44.42,2.13.98,3.2,3.62,5.85,6.84,6.79h0c.67.21,1.36.36,2.05.41.77.07,1.55.07,2.32-.05.41-.03.81-.13,1.22-.22.46-.12.92-.27,1.36-.45.42-.18.83-.37,1.22-.6.35-.19.68-.42,1-.65.37-.28.73-.58,1.06-.9.26-.25.5-.51.73-.79.22-.27.43-.55.63-.84.18-.26.34-.54.5-.82.16-.31.32-.63.46-.95.15-.39.3-.78.41-1.18.09-.33.19-.66.22-1,.09-.36.13-.74.14-1.11.05-.55.05-1.12-.01-1.67ZM16.85,8.04c-.13.33-.35.62-.61.86-.23.23-.46.46-.69.69-.24.24-.49.49-.73.73-.23.23-.47.46-.7.7-.25.25-.51.51-.76.76-.29.29-.58.58-.87.87-.27.27-.55.55-.82.82-.27.28-.55.55-.83.83-.25.24-.49.51-.77.72-.36.23-.78.34-1.2.33-.49-.03-.97-.22-1.32-.57-1.08-1.08-2.16-2.16-3.25-3.25-.26-.26-.44-.6-.54-.96-.1-.49-.04-1.02.21-1.46.19-.34.49-.61.83-.81.37-.17.79-.25,1.2-.2.44.07.87.27,1.18.6.59.59,1.17,1.18,1.76,1.76.18-.17.35-.35.52-.52.25-.24.49-.48.73-.73.24-.22.46-.45.68-.68.16-.14.3-.3.46-.45.25-.24.49-.49.73-.73.23-.22.46-.45.68-.68.24-.24.48-.48.72-.72.24-.25.54-.44.87-.55.42-.12.87-.11,1.29.03.53.2.96.62,1.19,1.14.17.47.19,1,.02,1.48Z"/>
  </g>
</svg>