<?xml version="1.0" encoding="UTF-8"?>
<svg id="Layer_2" data-name="Layer 2" xmlns="http://www.w3.org/2000/svg" xmlns:xlink="http://www.w3.org/1999/xlink" viewBox="0 0 171.18 442.28">
  <defs>
    <style>
      .cls-1 {
        opacity: .1;
      }

      .cls-1, .cls-2, .cls-3, .cls-4, .cls-5, .cls-6, .cls-7 {
        fill: none;
      }

      .cls-1, .cls-2, .cls-3, .cls-4, .cls-5, .cls-7 {
        stroke: #0210de;
      }

      .cls-1, .cls-2, .cls-3, .cls-5, .cls-7 {
        stroke-linejoin: round;
      }

      .cls-8 {
        fill: #0210de;
      }

      .cls-2 {
        stroke-linecap: round;
        stroke-width: 2px;
      }

      .cls-3 {
        opacity: .05;
      }

      .cls-4 {
        opacity: .4;
        stroke-miterlimit: 10;
      }

      .cls-9 {
        fill: #fff;
      }

      .cls-5 {
        opacity: .3;
      }

      .cls-10 {
        opacity: .18;
      }

      .cls-11 {
        fill: #f5f7fb;
      }

      .cls-7 {
        opacity: .2;
      }

      .cls-12 {
        clip-path: url(#clippath);
      }
    </style>
    <clipPath id="clippath">
      <rect class="cls-6" y="50" width="171.18" height="315.02" rx="15.95" ry="15.95"/>
    </clipPath>
  </defs>
  <g id="Layer_1-2" data-name="Layer 1">
    <rect class="cls-11" width="171.18" height="442.28" rx="15.95" ry="15.95"/>
    <g>
      <path class="cls-8" d="M67.99,308.09c-.44,0-.85-.11-1.22-.34-.37-.23-.67-.54-.89-.94-.22-.4-.33-.83-.33-1.29,0-.6.2-1.1.59-1.49.39-.4.96-.73,1.69-1.01l-1.6-2.12.19-.62,2.89-.42s.12-.01.2-.01c.26,0,.5.07.71.21.21.14.38.32.5.55.12.22.19.46.19.71,0,.22-.05.44-.16.64-.3.63-.9,1.09-1.79,1.38l.25.34c.09.11.23.19.44.25s.48.08.82.1.87.02,1.57.02l.05.38-.05.4h-.37c-.69,0-1.2-.01-1.55-.04-.34-.02-.64-.08-.88-.18-.24-.1-.44-.25-.6-.46l-.42-.55c-.62.23-1.11.51-1.46.83-.35.32-.53.72-.53,1.19,0,.33.08.63.25.9.17.27.4.48.68.63.29.15.6.21.94.19l3.52-.3.06.78-3.53.3h-.19ZM68.57,302.76l.13-.04c.86-.26,1.38-.68,1.54-1.25.04-.1.06-.2.06-.29,0-.2-.08-.36-.23-.49-.15-.13-.33-.18-.53-.14-1.28.17-2.08.28-2.41.34l1.44,1.87Z"/>
      <path class="cls-8" d="M71.96,304.01h.14c.72,0,1.31-.02,1.77-.05.46-.03.95-.12,1.46-.28l2.98-.83-2.57-1.54c-.25-.15-.51-.23-.79-.23s-.53.07-.76.22-.43.35-.58.62l-.22.38-.61-.37.23-.41c.22-.39.49-.7.83-.91.34-.22.7-.32,1.09-.32s.78.11,1.15.34l3.07,1.88-.12.91-3.53,1.01c-.55.16-1.07.26-1.56.29s-1.1.05-1.85.05h-.13v-.78ZM75.09,305.84h1.08v1.08h-1.08v-1.08Z"/>
      <path class="cls-8" d="M80.26,297l.71-.04.3,7.81-.71.04-.3-7.81Z"/>
      <path class="cls-8" d="M84.24,304.67l.02.17c.02.17.04.32.04.47,0,.49-.12.89-.35,1.21-.23.32-.54.56-.91.74-.38.18-.85.35-1.42.5l-.42.12-.18-.76.42-.12c.5-.13.88-.25,1.16-.36.28-.11.51-.28.7-.5.19-.22.28-.51.28-.88,0-.07,0-.18-.02-.32l-.48-3.46.71-.11.12.89.08.55c.06.34.12.59.18.76.06.17.16.28.28.35.12.06.29.1.5.1h.08l.05.38-.05.4h-.08c-.3,0-.54-.04-.72-.12Z"/>
      <path class="cls-8" d="M84.95,304.01h3.72l.05.38-.05.4h-3.72v-.78Z"/>
      <path class="cls-8" d="M88.55,304.01h3.72l.05.38-.05.4h-3.72v-.78Z"/>
      <path class="cls-8" d="M92.15,304.01h3.72l.05.38-.05.4h-3.72v-.78Z"/>
      <path class="cls-8" d="M95.75,304.01h3.72l.05.38-.05.4h-3.72v-.78Z"/>
      <path class="cls-8" d="M99.35,304.01h3.72l.05.38-.05.4h-3.72v-.78Z"/>
      <path class="cls-8" d="M102.95,304.01h.13c.28,0,.53-.07.76-.2.22-.14.4-.32.52-.55l.89-1.72c.14-.27.35-.49.61-.64s.54-.23.85-.23c.28,0,.54.06.77.19.31.16.55.39.7.68.16.3.23.63.23,1.01,0,.5-.13,1.04-.38,1.6-.1.21-.24.38-.44.51-.2.13-.42.2-.65.2-.19,0-.37-.04-.54-.13l-1.61-.83c-.2.29-.44.51-.73.67-.29.16-.61.23-.96.23h-.13v-.78ZM106.79,304.05c.1.05.18.07.26.07.1,0,.18-.03.25-.08.07-.05.13-.12.17-.2l.07-.18c.15-.34.23-.67.23-1.01,0-.26-.05-.5-.16-.7-.1-.2-.25-.35-.44-.46-.14-.07-.3-.11-.46-.11-.19,0-.37.05-.55.16-.17.1-.31.25-.4.44l-.62,1.22,1.64.83Z"/>
      <path class="cls-8" d="M108.83,307.12l.42-.12c.5-.13.88-.25,1.16-.36.28-.11.51-.28.7-.5.19-.22.28-.51.28-.88,0-.07,0-.18-.02-.32l-.48-3.46.71-.11.35,2.57.04.3c.02.13.05.33.08.6.02.17.04.32.04.47,0,.49-.12.89-.35,1.21-.23.32-.54.56-.91.74-.38.18-.85.35-1.42.5l-.42.12-.18-.76ZM110.53,298.9h1.08v1.08h-1.08v-1.08Z"/>
      <path class="cls-8" d="M113.22,297l.71-.04.3,7.81-.71.04-.3-7.81Z"/>
      <path class="cls-8" d="M118.35,307.74c-.88,0-1.57-.28-2.07-.85-.5-.57-.75-1.34-.75-2.3,0-.73.15-1.52.44-2.38l.68.26c-.28.78-.42,1.5-.42,2.15,0,.74.18,1.31.55,1.72.36.41.88.62,1.55.62.27,0,.56-.04.88-.11.54-.14.95-.25,1.22-.34.27-.09.5-.22.68-.38.18-.17.27-.39.27-.66,0-.13,0-.22-.02-.29-.04-.2-.22-.39-.54-.57-.32-.18-.68-.34-1.07-.47l-.49-.16.22-.74.53.16c.68.21,1.24.36,1.69.46.44.1.88.15,1.31.15l.05.38-.05.4c-.38,0-.76-.03-1.16-.1.12.16.19.32.22.47.02.08.02.2.02.36,0,.58-.23,1.03-.7,1.33-.47.3-1.14.56-2.01.77-.34.08-.68.12-1.02.12Z"/>
      <path class="cls-8" d="M125.88,304.68c-.6.06-1.72.09-3.35.11h-.13v-.78h.13l1.7-.04c-.24-.3-.4-.63-.47-1.01-.02-.14-.04-.26-.04-.38,0-.51.16-.96.47-1.34.31-.38.72-.62,1.22-.71.11-.02.2-.02.28-.02.42,0,.98.09,1.66.28l-.19.76c-.75-.2-1.28-.28-1.58-.24-.34.05-.61.19-.82.43s-.32.52-.32.84c0,.38.13.69.38.94.26.25.56.38.92.38.06,0,.15,0,.26-.02l2.05-.38.14.77-2.06.4-.26.04ZM125.03,298.43h1.07v1.08h-1.07v-1.08Z"/>
      <path class="cls-8" d="M130.11,297.4l.92,5.76-.7.14-.92-5.76.7-.14ZM134.97,304.64c-.25-.1-.46-.3-.62-.58-.34.49-.86.73-1.57.73h-2.88v-.78h2.88c.46,0,.78-.11.95-.33.17-.22.24-.47.23-.75l-.23-5.93.71-.04.23,5.83c.04.47.17.79.38.96.21.17.48.25.8.25h.24l.05.38-.05.4h-.24c-.33,0-.62-.05-.87-.16Z"/>
      <path class="cls-8" d="M135.48,304.01h3.72l.05.38-.05.4h-3.72v-.78Z"/>
      <path class="cls-8" d="M139.08,304.01h3.72l.05.38-.05.4h-3.72v-.78Z"/>
      <path class="cls-8" d="M142.68,304.01h3.72l.05.38-.05.4h-3.72v-.78Z"/>
      <path class="cls-8" d="M146.28,304.01h.95c.42,0,.77-.08,1.03-.25.26-.17.39-.45.39-.84,0-.19-.03-.39-.08-.59l-.48-1.79.67-.19.48,1.79c.07.29.11.55.11.79,0,.61-.2,1.07-.61,1.39-.4.32-.91.47-1.51.47h-.95v-.78ZM146.6,305.93h1.08v1.08h-1.08v-1.08Z"/>
      <path class="cls-8" d="M150.47,297l.71-.04.3,7.81-.71.04-.3-7.81Z"/>
      <path class="cls-8" d="M110.11,323.45c-.7,0-1.31-.2-1.85-.61-.54-.4-.9-.95-1.09-1.63-.07-.24-.11-.5-.11-.79,0-.66.21-1.28.64-1.85.43-.57,1.12-.98,2.07-1.24l3.52-.95-2.86-1.54c-.24-.14-.5-.2-.78-.2s-.53.07-.77.21-.44.34-.59.61l-.22.38-.61-.37.23-.41c.22-.38.51-.68.85-.89s.7-.32,1.09-.32.76.1,1.14.31l3.4,1.88-.12.91-4.09,1.13c-.79.22-1.35.54-1.69.96-.33.42-.5.88-.5,1.37,0,.22.02.41.07.58.13.5.4.9.83,1.2s.91.46,1.45.46c.24,0,.47-.03.7-.08l3.05-.84.18.76-3.08.85c-.29.07-.57.11-.85.11Z"/>
      <path class="cls-8" d="M115.98,311.8l.92,5.76-.7.14-.92-5.76.7-.14ZM120.85,319.04c-.25-.1-.46-.3-.62-.58-.34.49-.86.73-1.57.73h-2.88v-.78h2.88c.46,0,.78-.11.95-.33.17-.22.24-.47.23-.75l-.23-5.93.71-.04.23,5.83c.04.47.17.79.38.96.21.17.48.25.8.25h.24l.05.38-.05.4h-.24c-.33,0-.62-.05-.87-.16Z"/>
      <path class="cls-8" d="M121.36,318.41h3.72l.05.38-.05.4h-3.72v-.78Z"/>
      <path class="cls-8" d="M124.96,318.41h3.72l.05.38-.05.4h-3.72v-.78Z"/>
      <path class="cls-8" d="M130.72,319.02c-.2-.12-.37-.27-.49-.47-.36.42-.9.63-1.62.65h-.06v-.78h.06c.85-.02,1.3-.39,1.37-1.12l.13-1.48.7.06-.13,1.48v.02c-.02.34.03.59.16.77s.32.26.58.26h.05l.89-1.24c.38-.54.69-.96.94-1.25.25-.29.52-.52.8-.7s.61-.26.97-.26c.38,0,.73.1,1.05.29.32.19.57.46.75.79.18.34.28.71.28,1.12,0,.35-.1.68-.29,1-.19.31-.45.56-.76.75-.32.19-.66.28-1.03.28h-3.65c-.26,0-.49-.06-.69-.17ZM135.06,318.41c.24,0,.47-.06.68-.17s.38-.27.5-.47c.12-.2.19-.41.19-.63,0-.39-.13-.72-.38-.99-.26-.27-.58-.4-.96-.4-.26,0-.5.07-.72.21-.22.14-.43.33-.63.58s-.47.61-.8,1.09l-.58.79h2.7Z"/>
      <path class="cls-8" d="M142.45,322.14c-.88,0-1.57-.28-2.07-.85s-.75-1.34-.75-2.32c0-.72.15-1.51.44-2.36l.68.26c-.28.78-.42,1.5-.42,2.14,0,.74.18,1.32.55,1.73.37.41.89.62,1.56.62.26,0,.55-.04.86-.11.73-.18,1.3-.38,1.73-.61.42-.23.64-.44.64-.64,0-.09-.05-.16-.14-.23-.1-.06-.27-.14-.52-.22-.25-.08-.54-.17-.88-.26-.5-.15-.88-.33-1.13-.54-.25-.21-.38-.51-.38-.91,0-.25.04-.52.13-.8.09-.29.23-.59.44-.91.2-.32.47-.6.81-.83.34-.23.72-.35,1.14-.35.22,0,.42.03.62.08l.78.22-.18.77-.78-.22c-.17-.05-.33-.07-.48-.07-.49,0-.87.18-1.14.53-.27.35-.45.68-.54.98-.05.19-.07.35-.07.47,0,.26.08.44.25.55.16.11.45.22.86.33.55.17.94.29,1.16.37s.39.18.52.31.21.3.24.53v.14c.01.44-.25.84-.76,1.21-.52.37-1.23.66-2.15.86-.34.08-.68.12-1.02.12Z"/>
      <path class="cls-8" d="M147.66,318.89c-.34-.2-.53-.49-.58-.85-.04-.18-.06-.45-.06-.8h.65c0,.26.02.47.06.65.04.19.16.33.35.41.19.08.48.12.85.12h.62c.97,0,1.45-.29,1.45-.86,0-.13-.02-.24-.05-.35-.13-.42-.37-.95-.73-1.57-.36-.62-.75-1.23-1.18-1.83l.58-.47c.47.65.9,1.31,1.28,1.97s.63,1.24.74,1.71c.05.19.07.38.07.55,0,.48-.18.87-.55,1.17-.36.3-.93.45-1.7.45h-.43c-.58,0-1.04-.1-1.38-.31ZM148.6,311.43h1.08v1.08h-1.08v-1.08Z"/>
    </g>
    <g>
      <path class="cls-8" d="M58.09,248.15c-2.26,0-4.22-.53-5.89-1.58-1.67-1.06-2.95-2.55-3.85-4.48-.9-1.93-1.35-4.18-1.35-6.75,0-3.24.67-6.61,2.02-10.12l6.98,2.74c-.96,2.79-1.44,4.98-1.44,6.59,0,1.37.33,2.37.99,3.01s1.63.95,2.9.95c.79,0,1.78-.13,2.95-.4,1.27-.29,2.23-.56,2.86-.83s1.07-.56,1.31-.88c.24-.32.36-.76.36-1.31,0-.38-.04-.83-.11-1.33l-1.58-10.69,7.27-1.12.29,2.05c.05.24.1.49.14.74.05.25.1.51.14.77.07.67.16,1.19.25,1.55.07.41.19.69.36.85.17.16.43.23.79.23h1.51l.54,4.68-.54,4.68h-1.48c-.02,1.97-.5,3.6-1.42,4.9-.92,1.3-2.2,2.34-3.82,3.13s-3.65,1.49-6.1,2.09c-1.44.36-2.81.54-4.1.54ZM55.57,218.34h6.19v6.19h-6.19v-6.19Z"/>
      <path class="cls-8" d="M74.69,228.13h6.05c.53,0,.86-.07,1.01-.2.14-.13.19-.41.14-.85l-.36-4.18,7.2-.72.4,4.43c.05.62.06,1.11.04,1.44.26.05.82.07,1.66.07l.54,4.64-.54,4.72c-2.06,0-3.78-.55-5.15-1.66-1.37,1.1-2.92,1.66-4.64,1.66h-6.34v-9.36ZM76.24,239.91h11.66v5.83h-11.66v-5.83Z"/>
      <path class="cls-8" d="M87.22,228.13h3.46c.53,0,.91-.07,1.13-.22.23-.14.34-.4.34-.76,0-.22-.04-.47-.11-.76l-1.58-5.72,7.06-2.09,1.73,6.52c.31,1.1.47,2.22.47,3.35,0,1.71-.37,3.25-1.1,4.63-.73,1.38-1.78,2.46-3.13,3.24-1.36.78-2.92,1.17-4.7,1.17h-3.56v-9.36ZM89.63,209.27h6.19v6.19h-6.19v-6.19Z"/>
      <path class="cls-8" d="M99.56,209.31l8.35-.43,1.08,28.51-8.35.36-1.08-28.44Z"/>
      <path class="cls-8" d="M115.15,239.22c1.9-.36,3.25-.64,4.07-.83.82-.19,1.42-.38,1.8-.56.38-.18.62-.41.72-.7-.67-.02-1.84-.04-3.49-.04-1.82,0-3.47-.38-4.93-1.13-1.46-.76-2.63-1.9-3.49-3.44-.86-1.54-1.3-3.41-1.3-5.62,0-2.06.41-3.91,1.24-5.54.83-1.63,1.97-2.91,3.44-3.83,1.46-.92,3.1-1.39,4.9-1.39,1.61,0,3.11.4,4.52,1.19,1.4.79,2.58,1.96,3.53,3.51.95,1.55,1.55,3.41,1.82,5.6l.22,1.73,2.09-.04h.29l.47,4.72-.47,4.64h-1.26c.05,2.33-.51,4.2-1.67,5.62s-2.84,2.53-5.02,3.33c-2.18.8-5.16,1.59-8.93,2.36l-1.94-8.89,3.42-.68ZM116.31,227.9c.33.37.84.55,1.51.52l2.81-.07-.14-1.12c-.12-1.01-.4-1.78-.85-2.32-.45-.54-1-.81-1.67-.81-.62,0-1.14.22-1.55.65s-.61,1-.61,1.69c0,.6.17,1.09.5,1.46Z"/>
      <path class="cls-8" d="M130.31,228.13h9.83c.94,0,1.58-.1,1.93-.31.35-.2.53-.55.56-1.03l-2.95.04c-2.59,0-4.6-.69-6.01-2.07-1.42-1.38-2.12-3.29-2.12-5.74,0-1.8.3-3.47.9-5,.6-1.54,1.53-2.77,2.79-3.71,1.26-.94,2.85-1.4,4.77-1.4,1.75,0,3.27.43,4.55,1.28,1.28.85,2.29,1.99,3.01,3.42.72,1.43,1.14,2.99,1.26,4.7l.61,8.21c.02.24.04.6.04,1.08,0,2.93-.91,5.31-2.74,7.15-1.82,1.84-4.64,2.75-8.46,2.75h-7.96v-9.36ZM134.16,200.7h11.66v5.87h-11.66v-5.87ZM139.6,219.6c.79,0,1.64-.02,2.56-.07l-.04-.72c-.07-.96-.31-1.69-.72-2.2-.41-.5-.94-.76-1.58-.76-.58,0-1.04.21-1.4.63s-.54.95-.54,1.6c0,1.01.58,1.51,1.73,1.51Z"/>
    </g>
    <g>
      <path class="cls-8" d="M26.42,279.51c-1.31-.05-2.41-.16-3.29-.32-.89-.17-1.79-.44-2.7-.83-1.49-.65-2.65-1.71-3.49-3.19-.84-1.48-1.26-3.14-1.26-4.99,0-.91.13-1.9.4-2.95l1.73-6.52,7.02,2.09-1.51,5.8c-.05.14-.07.32-.07.54,0,.53.31.83.94.9.94.12,3.92.18,8.96.18h.22c3.02,0,5.1-.04,6.23-.11,1.13-.07,1.94-.17,2.45-.29.58-.14.86-.48.86-1.01,0-.12-.05-.37-.14-.76l-1.44-5.29,7.02-2.09,1.69,6.16c.29,1.1.43,2.2.43,3.28,0,1.87-.41,3.55-1.24,5.02s-1.99,2.55-3.47,3.22c-.91.41-1.82.7-2.72.86-.9.17-1.99.27-3.28.31-1.28.04-3.42.05-6.39.05h-.86c-2.74,0-4.76-.02-6.07-.07ZM27.2,256.69h11.63v5.83h-11.63v-5.83Z"/>
      <path class="cls-8" d="M51.42,251.4l8.35-.43,1.08,28.51-8.35.36-1.08-28.44Z"/>
      <path class="cls-8" d="M59.24,281.17l3.82-1.04c1.13-.34,1.88-.65,2.27-.94s.58-.74.58-1.37c0-.31-.04-.68-.11-1.12l-1.66-11.7,7.27-1.08,1.19,8.6.18,1.3.47,3.35c.12,1.15.18,2.1.18,2.84,0,1.8-.28,3.28-.85,4.43-.56,1.15-1.44,2.11-2.63,2.86-1.19.76-2.79,1.41-4.81,1.96l-3.82,1.04-2.09-9.14Z"/>
      <path class="cls-8" d="M72.88,281.17l3.82-1.04c1.13-.34,1.88-.65,2.27-.94.38-.29.58-.74.58-1.37,0-.31-.04-.68-.11-1.12l-1.66-11.7,7.27-1.08.47,3.28.29,1.91c.1.41.25.7.47.86s.49.25.83.25h.76l.54,4.68-.54,4.68h-.79c.05,1.89-.2,3.45-.76,4.66-.55,1.21-1.43,2.21-2.65,2.99s-2.84,1.46-4.88,2.03l-3.82,1.04-2.09-9.14Z"/>
      <path class="cls-8" d="M87.6,270.22h2.41c-.34-.86-.47-1.68-.4-2.45l.29-2.88c.17-1.56.69-2.93,1.57-4.12.88-1.19,1.99-2.1,3.33-2.74,1.34-.63,2.76-.95,4.25-.95,1.75,0,3.31.46,4.68,1.37s2.42,2.07,3.15,3.47,1.06,2.83.99,4.27l-.14,2.74c-.02.43-.1.86-.22,1.3h2.34l.5,4.68-.5,4.68h-4.32c-1.97,0-4.2-.55-6.7-1.66-1.25.53-2.51.94-3.78,1.22-1.27.29-2.46.43-3.56.43h-3.89v-9.36ZM93.4,249.31h11.63v5.83h-11.63v-5.83ZM97.58,268.89c.29.19.67.37,1.15.54.96-.31,1.64-.68,2.05-1.12l.22-1.4c.07-.5-.11-1-.56-1.49-.44-.49-.97-.74-1.57-.74-.53,0-1.03.17-1.49.52-.47.35-.71.77-.74,1.28l-.14,1.62c.43.34.79.6,1.08.79Z"/>
      <path class="cls-8" d="M109.53,270.22h.61c.77,0,1.37-.1,1.82-.31.44-.2.82-.59,1.13-1.17l2.88-5.69c.77-1.49,1.84-2.63,3.22-3.42,1.38-.79,2.87-1.19,4.48-1.19,1.49,0,2.86.32,4.1.97,1.56.79,2.78,1.96,3.65,3.51.88,1.55,1.31,3.31,1.31,5.27,0,2.16-.55,4.38-1.66,6.66-.72,1.46-1.66,2.65-2.83,3.56s-2.47,1.37-3.91,1.37c-1.13,0-2.27-.29-3.42-.86l-4.46-2.27c-1.82,1.94-3.88,2.92-6.16,2.92h-.79v-9.36ZM124.97,271.3l.61-1.26c.26-.5.4-1,.4-1.48,0-.86-.38-1.49-1.15-1.87-.31-.17-.66-.25-1.04-.25-.86,0-1.56.49-2.09,1.48l-.76,1.4,4.03,1.98Z"/>
      <path class="cls-8" d="M143.66,280.02c1.3-.31,2.2-.61,2.7-.88.5-.28.78-.63.83-1.06-1.08.31-2.27.47-3.56.47-1.8,0-3.44-.38-4.91-1.13-1.48-.76-2.65-1.9-3.51-3.42-.86-1.52-1.3-3.39-1.3-5.6,0-2.04.41-3.88,1.24-5.53.83-1.64,1.97-2.93,3.44-3.85s3.1-1.39,4.9-1.39c1.61,0,3.11.39,4.52,1.17,1.4.78,2.58,1.94,3.53,3.49.95,1.55,1.55,3.43,1.82,5.63l1.19,9.4c.1.65.14,1.31.14,1.98,0,2.26-.59,4.07-1.76,5.44s-2.85,2.45-5.02,3.24c-2.17.79-5.12,1.56-8.84,2.3l-1.94-8.89c3.07-.6,5.26-1.06,6.55-1.37ZM141.71,269.36c.34.38.84.58,1.51.58.89,0,1.84-.06,2.84-.18l-.14-1.01c-.14-.98-.45-1.75-.92-2.3-.47-.55-1.03-.83-1.67-.83-.6,0-1.1.22-1.51.67-.41.45-.61,1-.61,1.67,0,.55.17,1.02.5,1.4Z"/>
    </g>
    <g class="cls-10">
      <g class="cls-12">
        <g>
          <path class="cls-3" d="M189.76,355.43c-11.44-7.29-22.13-15.03-31.77-23.02-13.06-10.73-24.98-22.5-35.38-34.93-.8-.94-1.83-2.19-2.83-3.41-3.49-4.31-6.85-8.76-10.04-13.28-1.36-1.91-2.82-4.03-4.43-6.44-9.95-15.16-18.13-31.21-24.37-47.76-14.41-38.14-19.75-81.24-15.86-128.08l2.91-35.07,34.48-7.07c39.19-8.04,69.9-34.64,74.54-39.76l37.92-53.5,38.07,53.52c4.66,5.13,35.44,31.72,74.55,39.75l34.49,7.08,2.9,35.09c3.75,45.33-1.14,87.14-14.54,124.27-6.43,17.98-15.02,35.22-25.51,51.2-1.46,2.2-3.03,4.55-4.83,7.03-2.93,4.2-6.05,8.33-9.52,12.64l-1.47,1.79c-.49.59-.96,1.17-1.44,1.74-10.35,12.43-22.37,24.31-35.71,35.29-9.75,8.05-20.41,15.77-31.69,22.95l-25.24,16.07-25.24-16.07Z"/>
          <path class="cls-1" d="M196.2,345.31c-11.02-7.02-21.3-14.46-30.56-22.13-12.51-10.28-23.91-21.53-33.83-33.39-.81-.96-1.8-2.15-2.75-3.31-3.3-4.08-6.49-8.3-9.52-12.6-1.31-1.84-2.71-3.87-4.25-6.18-9.43-14.38-17.2-29.61-23.13-45.34-13.78-36.46-18.87-77.8-15.13-122.86l2.17-26.12,25.67-5.27c44.6-9.15,78.64-40.3,81.62-44.17l28.45-40.13,28.57,40.16c2.93,3.8,37.02,34.98,81.63,44.13l25.68,5.27,2.16,26.13c3.61,43.6-1.06,83.71-13.87,119.21-6.12,17.11-14.28,33.5-24.25,48.68-1.39,2.1-2.88,4.33-4.57,6.65-2.79,4-5.77,7.95-9.09,12.08,0,0-1.08,1.3-1.4,1.69-.46.56-.91,1.11-1.37,1.66-9.88,11.87-21.38,23.23-34.14,33.73-9.38,7.74-19.65,15.18-30.5,22.09l-18.8,11.97-18.8-11.96Z"/>
          <path class="cls-7" d="M202.65,335.19c-10.6-6.75-20.47-13.9-29.35-21.25-11.96-9.83-22.84-20.56-32.29-31.85-.83-.97-1.76-2.11-2.67-3.21-3.1-3.84-6.12-7.83-9-11.92-1.26-1.76-2.6-3.71-4.06-5.92-8.92-13.59-16.26-28.01-21.88-42.91-13.15-34.79-17.99-74.37-14.4-117.63l1.43-17.16,16.87-3.46c46.92-9.63,84.44-42.57,88.94-48.9l18.73-26.42,18.77,26.39c4.51,6.34,42.09,39.31,88.99,48.93l16.88,3.46,1.42,17.17c3.46,41.87-.98,80.27-13.2,114.14-5.81,16.24-13.55,31.78-23,46.17-1.32,2-2.74,4.11-4.31,6.27-2.65,3.8-5.49,7.57-8.67,11.52l-.29.35c-.35.42-.69.83-1.03,1.25-.43.53-.86,1.05-1.3,1.56-9.42,11.31-20.39,22.15-32.57,32.18-9.01,7.44-18.88,14.59-29.32,21.23l-12.35,7.86-12.35-7.86Z"/>
          <path class="cls-5" d="M209.09,325.06c-10.18-6.48-19.65-13.33-28.14-20.37-11.42-9.38-21.77-19.59-30.74-30.31-.84-.99-1.73-2.07-2.59-3.12-2.91-3.6-5.75-7.36-8.48-11.23-1.21-1.7-2.49-3.56-3.88-5.65-8.4-12.81-15.33-26.41-20.64-40.49-12.51-33.11-17.11-70.93-13.67-112.41l.68-8.21,8.07-1.66c50.36-10.34,90.59-45.63,96.32-53.72l8.96-12.64,8.98,12.62c5.76,8.09,46.05,43.41,96.36,53.73l8.07,1.66.68,8.21c3.32,40.14-.89,76.84-12.53,109.08-5.49,15.36-12.81,30.06-21.74,43.66-1.26,1.9-2.6,3.9-4.05,5.89-2.51,3.61-5.21,7.2-8.24,10.97l-.14.17c-.37.45-.74.89-1.1,1.34-.4.49-.81.98-1.22,1.47-8.96,10.76-19.4,21.07-31,30.63-8.64,7.13-18.11,13.99-28.14,20.38l-5.91,3.76-5.91-3.76Z"/>
          <path class="cls-4" d="M306.2,206.84c-5.2,14.54-12.03,28.32-20.59,41.35-1.24,1.87-2.48,3.72-3.81,5.53-2.48,3.57-5.11,7.04-7.86,10.46-.79.94-1.54,1.87-2.33,2.81-8.59,10.31-18.44,20.04-29.56,29.2-8.31,6.86-17.32,13.39-27.05,19.59-9.73-6.2-18.74-12.7-27.02-19.56-11.03-9.07-20.8-18.71-29.32-28.9-.85-1-1.69-2.03-2.51-3.02-2.81-3.48-5.47-7.01-8.01-10.61-1.27-1.78-2.51-3.6-3.72-5.41-7.95-12.12-14.45-24.88-19.5-38.27-12.21-32.31-16.26-68.32-13-107.61,51.12-10.49,94.62-46.19,103.08-58.13,8.49,11.94,51.99,47.64,103.11,58.13,3.14,38-.54,72.94-11.91,104.44Z"/>
        </g>
      </g>
    </g>
    <rect class="cls-9" x="128.83" y="173.57" width="20.29" height="20.29" rx="5.76" ry="5.76"/>
    <g>
      <path class="cls-2" d="M134.69,179.72h8.06v8.06"/>
      <path class="cls-2" d="M134.69,187.78l8.06-8.06"/>
    </g>
  </g>
</svg>