<?xml version="1.0" encoding="UTF-8"?>
<svg id="Layer_2" xmlns="http://www.w3.org/2000/svg" version="1.1" xmlns:xlink="http://www.w3.org/1999/xlink" viewBox="0 0 171.2 389.4">
  <!-- Generator: Adobe Illustrator 29.8.1, SVG Export Plug-In . SVG Version: 2.1.1 Build 2)  -->
  <defs>
    <style>
      .st0 {
        opacity: .2;
      }

      .st1 {
        opacity: 0;
      }

      .st1, .st2, .st3, .st4, .st5, .st6, .st7 {
        fill: none;
      }

      .st1, .st2, .st4, .st5, .st6 {
        isolation: isolate;
      }

      .st1, .st2, .st4, .st5, .st6, .st7 {
        stroke: #0210de;
      }

      .st1, .st4, .st5, .st6, .st7 {
        stroke-linejoin: round;
      }

      .st8 {
        fill: #fff;
      }

      .st2 {
        opacity: .4;
        stroke-miterlimit: 10;
      }

      .st4 {
        opacity: .3;
      }

      .st9 {
        fill: #0210de;
      }

      .st5 {
        opacity: .1;
      }

      .st6 {
        opacity: .2;
      }

      .st7 {
        stroke-linecap: round;
        stroke-width: 2px;
      }

      .st10 {
        clip-path: url(#clippath);
      }

      .st11 {
        fill: #f5f7fb;
      }
    </style>
    <clipPath id="clippath">
      <rect class="st3" y="34.6" width="171.2" height="315" rx="15.9" ry="15.9"/>
    </clipPath>
  </defs>
  <g id="Layer_1-2">
    <rect class="st11" y="4.6" width="171.2" height="382.3" rx="15.9" ry="15.9"/>
    <g>
      <path class="st9" d="M68,242.8c-.4,0-.8-.1-1.2-.3s-.7-.5-.9-.9-.3-.8-.3-1.3.2-1.1.6-1.5c.4-.4,1-.7,1.7-1l-1.6-2.1.2-.6,2.9-.4s.1,0,.2,0c.3,0,.5,0,.7.2.2.1.4.3.5.5.1.2.2.5.2.7s0,.4-.2.6c-.3.6-.9,1.1-1.8,1.4l.2.3c0,.1.2.2.4.2s.5,0,.8.1.9,0,1.6,0v.4c0,0,0,.4,0,.4h-.4c-.7,0-1.2,0-1.6,0-.3,0-.6,0-.9-.2s-.4-.2-.6-.5l-.4-.5c-.6.2-1.1.5-1.5.8-.3.3-.5.7-.5,1.2s0,.6.2.9.4.5.7.6c.3.1.6.2.9.2l3.5-.3v.8c0,0-3.5.3-3.5.3h-.2,0ZM68.6,237.4h.1c.9-.3,1.4-.7,1.5-1.3,0-.1,0-.2,0-.3,0-.2,0-.4-.2-.5s-.3-.2-.5-.1c-1.3.2-2.1.3-2.4.3l1.4,1.9h0Z"/>
      <path class="st9" d="M72,238.7h.1c.7,0,1.3,0,1.8,0s.9-.1,1.5-.3l3-.8-2.6-1.5c-.2-.1-.5-.2-.8-.2s-.5,0-.8.2-.4.4-.6.6l-.2.4-.6-.4.2-.4c.2-.4.5-.7.8-.9.3-.2.7-.3,1.1-.3s.8.1,1.2.3l3.1,1.9v.9c-.1,0-3.7,1-3.7,1-.6.2-1.1.3-1.6.3s-1.1,0-1.8,0h-.1v-.8h0ZM75.1,240.5h1.1v1.1h-1.1v-1.1Z"/>
      <path class="st9" d="M80.3,231.7h.7s.3,7.8.3,7.8h-.7s-.3-7.8-.3-7.8Z"/>
      <path class="st9" d="M84.2,239.4v.2c0,.2,0,.3,0,.5,0,.5-.1.9-.3,1.2-.2.3-.5.6-.9.7-.4.2-.8.4-1.4.5h-.4c0,.1-.2-.6-.2-.6h.4c.5-.2.9-.4,1.2-.5.3-.1.5-.3.7-.5.2-.2.3-.5.3-.9s0-.2,0-.3l-.5-3.5h.7c0-.1.1.8.1.8v.5c.1.3.2.6.3.8s.2.3.3.4c.1,0,.3.1.5.1h0v.4c0,0,0,.4,0,.4h0c-.3,0-.5,0-.7-.1h0Z"/>
      <path class="st9" d="M84.9,238.7h3.7v.4c0,0,0,.4,0,.4h-3.7v-.8Z"/>
      <path class="st9" d="M88.6,238.7h3.7v.4c0,0,0,.4,0,.4h-3.7v-.8Z"/>
      <path class="st9" d="M92.2,238.7h3.7v.4c0,0,0,.4,0,.4h-3.7v-.8Z"/>
      <path class="st9" d="M95.8,238.7h3.7v.4c0,0,0,.4,0,.4h-3.7v-.8Z"/>
      <path class="st9" d="M99.3,238.7h3.7v.4c0,0,0,.4,0,.4h-3.7v-.8Z"/>
      <path class="st9" d="M102.9,238.7h.1c.3,0,.5,0,.8-.2.2-.1.4-.3.5-.5l.9-1.7c.1-.3.3-.5.6-.6s.5-.2.8-.2.5,0,.8.2c.3.2.6.4.7.7.2.3.2.6.2,1s-.1,1-.4,1.6c0,.2-.2.4-.4.5-.2.1-.4.2-.7.2s-.4,0-.5-.1l-1.6-.8c-.2.3-.4.5-.7.7s-.6.2-1,.2h-.1v-.8h0ZM106.8,238.7c0,0,.2,0,.3,0s.2,0,.2,0,.1-.1.2-.2v-.2c.2-.3.3-.7.3-1s0-.5-.2-.7c0-.2-.2-.4-.4-.5-.1,0-.3-.1-.5-.1s-.4,0-.6.2c-.2.1-.3.2-.4.4l-.6,1.2,1.6.8h0Z"/>
      <path class="st9" d="M108.8,241.8h.4c.5-.2.9-.4,1.2-.5.3-.1.5-.3.7-.5.2-.2.3-.5.3-.9s0-.2,0-.3l-.5-3.5h.7c0-.1.3,2.5.3,2.5v.3c0,.1,0,.3.1.6,0,.2,0,.3,0,.5,0,.5-.1.9-.3,1.2-.2.3-.5.6-.9.7-.4.2-.8.4-1.4.5h-.4c0,.1-.2-.6-.2-.6ZM110.5,233.6h1.1v1.1h-1.1v-1.1Z"/>
      <path class="st9" d="M113.2,231.7h.7s.3,7.8.3,7.8h-.7s-.3-7.8-.3-7.8Z"/>
      <path class="st9" d="M118.3,242.4c-.9,0-1.6-.3-2.1-.9s-.8-1.3-.8-2.3.2-1.5.4-2.4l.7.3c-.3.8-.4,1.5-.4,2.1s.2,1.3.6,1.7c.4.4.9.6,1.6.6s.6,0,.9-.1c.5-.1.9-.2,1.2-.3.3,0,.5-.2.7-.4.2-.2.3-.4.3-.7s0-.2,0-.3c0-.2-.2-.4-.5-.6s-.7-.3-1.1-.5l-.5-.2.2-.7.5.2c.7.2,1.2.4,1.7.5.4.1.9.1,1.3.1v.4c0,0,0,.4,0,.4-.4,0-.8,0-1.2-.1.1.2.2.3.2.5,0,0,0,.2,0,.4,0,.6-.2,1-.7,1.3-.5.3-1.1.6-2,.8-.3,0-.7.1-1,.1h0Z"/>
      <path class="st9" d="M125.9,239.4c-.6,0-1.7,0-3.3.1h-.1v-.8h1.8c-.2-.3-.4-.7-.5-1.1,0-.1,0-.3,0-.4,0-.5.2-1,.5-1.3s.7-.6,1.2-.7c.1,0,.2,0,.3,0,.4,0,1,0,1.7.3l-.2.8c-.8-.2-1.3-.3-1.6-.2-.3,0-.6.2-.8.4s-.3.5-.3.8.1.7.4.9c.3.2.6.4.9.4s.2,0,.3,0l2-.4v.8c.1,0-1.9.4-1.9.4h-.3s0,0,0,0ZM125,233.1h1.1v1.1h-1.1v-1.1Z"/>
      <path class="st9" d="M130.1,232.1l.9,5.8h-.7c0,.1-.9-5.6-.9-5.6h.7ZM135,239.3c-.2-.1-.5-.3-.6-.6-.3.5-.9.7-1.6.7h-2.9v-.8h2.9c.5,0,.8-.1.9-.3s.2-.5.2-.8l-.2-5.9h.7s.2,5.8.2,5.8c0,.5.2.8.4,1,.2.2.5.2.8.2h.2v.4c0,0,0,.4,0,.4h-.2c-.3,0-.6,0-.9-.2h0Z"/>
      <path class="st9" d="M135.5,238.7h3.7v.4c0,0,0,.4,0,.4h-3.7v-.8Z"/>
      <path class="st9" d="M139.1,238.7h3.7v.4c0,0,0,.4,0,.4h-3.7v-.8Z"/>
      <path class="st9" d="M142.7,238.7h3.7v.4c0,0,0,.4,0,.4h-3.7v-.8Z"/>
      <path class="st9" d="M146.3,238.7h.9c.4,0,.8,0,1-.2s.4-.5.4-.8,0-.4,0-.6l-.5-1.8.7-.2.5,1.8c0,.3.1.5.1.8,0,.6-.2,1.1-.6,1.4-.4.3-.9.5-1.5.5h-.9v-.8h0ZM146.6,240.6h1.1v1.1h-1.1v-1.1Z"/>
      <path class="st9" d="M150.5,231.7h.7s.3,7.8.3,7.8h-.7s-.3-7.8-.3-7.8Z"/>
      <path class="st9" d="M110.1,258.1c-.7,0-1.3-.2-1.8-.6-.5-.4-.9-1-1.1-1.6,0-.2-.1-.5-.1-.8,0-.7.2-1.3.6-1.9s1.1-1,2.1-1.2l3.5-1-2.9-1.5c-.2-.1-.5-.2-.8-.2s-.5,0-.8.2-.4.3-.6.6l-.2.4-.6-.4.2-.4c.2-.4.5-.7.8-.9s.7-.3,1.1-.3.8.1,1.1.3l3.4,1.9v.9c-.1,0-4.2,1.1-4.2,1.1-.8.2-1.3.5-1.7,1-.3.4-.5.9-.5,1.4s0,.4,0,.6c.1.5.4.9.8,1.2s.9.5,1.4.5.5,0,.7,0l3.1-.8.2.8-3.1.9c-.3,0-.6.1-.8.1h0Z"/>
      <path class="st9" d="M116,246.5l.9,5.8h-.7c0,.1-.9-5.6-.9-5.6h.7ZM120.8,253.7c-.2-.1-.5-.3-.6-.6-.3.5-.9.7-1.6.7h-2.9v-.8h2.9c.5,0,.8-.1.9-.3s.2-.5.2-.8l-.2-5.9h.7s.2,5.8.2,5.8c0,.5.2.8.4,1,.2.2.5.2.8.2h.2v.4c0,0,0,.4,0,.4h-.2c-.3,0-.6,0-.9-.2h0Z"/>
      <path class="st9" d="M121.4,253.1h3.7v.4c0,0,0,.4,0,.4h-3.7v-.8Z"/>
      <path class="st9" d="M125,253.1h3.7v.4c0,0,0,.4,0,.4h-3.7s0-.8,0-.8Z"/>
      <path class="st9" d="M130.7,253.7c-.2-.1-.4-.3-.5-.5-.4.4-.9.6-1.6.6h0v-.8h0c.9,0,1.3-.4,1.4-1.1v-1.5c.1,0,.8,0,.8,0v1.5c-.1,0-.1,0-.1,0,0,.3,0,.6.2.8s.3.3.6.3h0l.9-1.2c.4-.5.7-1,.9-1.2s.5-.5.8-.7.6-.3,1-.3.7.1,1.1.3.6.5.8.8c.2.3.3.7.3,1.1s-.1.7-.3,1c-.2.3-.4.6-.8.8-.3.2-.7.3-1,.3h-3.6c-.3,0-.5,0-.7-.2h0ZM135.1,253.1c.2,0,.5,0,.7-.2s.4-.3.5-.5.2-.4.2-.6c0-.4-.1-.7-.4-1-.3-.3-.6-.4-1-.4s-.5,0-.7.2c-.2.1-.4.3-.6.6s-.5.6-.8,1.1l-.6.8h2.7Z"/>
      <path class="st9" d="M142.4,256.8c-.9,0-1.6-.3-2.1-.9s-.8-1.3-.8-2.3.1-1.5.4-2.4l.7.3c-.3.8-.4,1.5-.4,2.1s.2,1.3.6,1.7c.4.4.9.6,1.6.6s.6,0,.9-.1c.7-.2,1.3-.4,1.7-.6.4-.2.6-.4.6-.6s0-.2-.1-.2c-.1,0-.3-.1-.5-.2s-.5-.2-.9-.3c-.5-.1-.9-.3-1.1-.5-.2-.2-.4-.5-.4-.9s0-.5.1-.8c0-.3.2-.6.4-.9.2-.3.5-.6.8-.8.3-.2.7-.4,1.1-.4s.4,0,.6,0l.8.2-.2.8-.8-.2c-.2,0-.3,0-.5,0-.5,0-.9.2-1.1.5s-.4.7-.5,1c0,.2,0,.4,0,.5,0,.3,0,.4.2.5.2.1.4.2.9.3.6.2.9.3,1.2.4s.4.2.5.3.2.3.2.5h0c0,.6-.2,1-.8,1.4-.5.4-1.2.7-2.1.9-.3,0-.7.1-1,.1h0Z"/>
      <path class="st9" d="M147.7,253.6c-.3-.2-.5-.5-.6-.9,0-.2,0-.5,0-.8h.6c0,.3,0,.5,0,.6,0,.2.2.3.4.4.2,0,.5.1.9.1h.6c1,0,1.4-.3,1.4-.9s0-.2,0-.4c-.1-.4-.4-1-.7-1.6s-.8-1.2-1.2-1.8l.6-.5c.5.6.9,1.3,1.3,2s.6,1.2.7,1.7c0,.2,0,.4,0,.5,0,.5-.2.9-.6,1.2-.4.3-.9.5-1.7.5h-.4c-.6,0-1-.1-1.4-.3h0ZM148.6,246.1h1.1v1.1h-1.1v-1.1Z"/>
    </g>
    <g>
      <path class="st9" d="M58.1,182.8c-2.3,0-4.2-.5-5.9-1.6-1.7-1.1-3-2.6-3.8-4.5-.9-1.9-1.3-4.2-1.3-6.8s.7-6.6,2-10.1l7,2.7c-1,2.8-1.4,5-1.4,6.6s.3,2.4,1,3,1.6.9,2.9.9,1.8-.1,3-.4c1.3-.3,2.2-.6,2.9-.8.6-.3,1.1-.6,1.3-.9s.4-.8.4-1.3,0-.8-.1-1.3l-1.6-10.7,7.3-1.1.3,2.1c0,.2,0,.5.1.7,0,.2,0,.5.1.8,0,.7.2,1.2.2,1.6,0,.4.2.7.4.9s.4.2.8.2h1.5l.5,4.7-.5,4.7h-1.5c0,2-.5,3.6-1.4,4.9-.9,1.3-2.2,2.3-3.8,3.1s-3.7,1.5-6.1,2.1c-1.4.4-2.8.5-4.1.5h0ZM55.6,153h6.2v6.2h-6.2v-6.2Z"/>
      <path class="st9" d="M74.7,162.8h6.1c.5,0,.9,0,1-.2.1-.1.2-.4.1-.9l-.4-4.2,7.2-.7.4,4.4c0,.6,0,1.1,0,1.4.3,0,.8,0,1.7,0l.5,4.6-.5,4.7c-2.1,0-3.8-.6-5.2-1.7-1.4,1.1-2.9,1.7-4.6,1.7h-6.3v-9.4h0ZM76.2,174.6h11.7v5.8h-11.7s0-5.8,0-5.8Z"/>
      <path class="st9" d="M87.2,162.8h3.5c.5,0,.9,0,1.1-.2.2-.1.3-.4.3-.8s0-.5-.1-.8l-1.6-5.7,7.1-2.1,1.7,6.5c.3,1.1.5,2.2.5,3.4,0,1.7-.4,3.2-1.1,4.6-.7,1.4-1.8,2.5-3.1,3.2-1.4.8-2.9,1.2-4.7,1.2h-3.6v-9.4h0ZM89.6,144h6.2v6.2h-6.2v-6.2Z"/>
      <path class="st9" d="M99.6,144l8.3-.4,1.1,28.5-8.3.4-1.1-28.4Z"/>
      <path class="st9" d="M115.2,173.9c1.9-.4,3.2-.6,4.1-.8s1.4-.4,1.8-.6c.4-.2.6-.4.7-.7-.7,0-1.8,0-3.5,0s-3.5-.4-4.9-1.1c-1.5-.8-2.6-1.9-3.5-3.4-.9-1.5-1.3-3.4-1.3-5.6s.4-3.9,1.2-5.5c.8-1.6,2-2.9,3.4-3.8,1.5-.9,3.1-1.4,4.9-1.4s3.1.4,4.5,1.2c1.4.8,2.6,2,3.5,3.5.9,1.6,1.6,3.4,1.8,5.6l.2,1.7h2.1s.3,0,.3,0l.5,4.7-.5,4.6h-1.3c0,2.3-.5,4.2-1.7,5.6s-2.8,2.5-5,3.3-5.2,1.6-8.9,2.4l-1.9-8.9,3.4-.7h0ZM116.3,162.6c.3.4.8.6,1.5.5h2.8c0,0-.1-1.2-.1-1.2-.1-1-.4-1.8-.8-2.3-.4-.5-1-.8-1.7-.8s-1.1.2-1.6.6-.6,1-.6,1.7.2,1.1.5,1.5Z"/>
      <path class="st9" d="M130.3,162.8h9.8c.9,0,1.6-.1,1.9-.3.4-.2.5-.6.6-1h-2.9c-2.6,0-4.6-.7-6-2-1.4-1.4-2.1-3.3-2.1-5.7s.3-3.5.9-5c.6-1.5,1.5-2.8,2.8-3.7s2.9-1.4,4.8-1.4,3.3.4,4.6,1.3,2.3,2,3,3.4,1.1,3,1.3,4.7l.6,8.2c0,.2,0,.6,0,1.1,0,2.9-.9,5.3-2.7,7.1-1.8,1.8-4.6,2.8-8.5,2.8h-8v-9.4h0ZM134.2,135.4h11.7v5.9h-11.7v-5.9ZM139.6,154.3c.8,0,1.6,0,2.6,0v-.7c-.1-1-.3-1.7-.8-2.2-.4-.5-.9-.8-1.6-.8s-1,.2-1.4.6-.5.9-.5,1.6c0,1,.6,1.5,1.7,1.5h0Z"/>
    </g>
    <g>
      <path class="st9" d="M26.4,214.2c-1.3,0-2.4-.2-3.3-.3-.9-.2-1.8-.4-2.7-.8-1.5-.6-2.6-1.7-3.5-3.2s-1.3-3.1-1.3-5,.1-1.9.4-3l1.7-6.5,7,2.1-1.5,5.8c0,.1,0,.3,0,.5,0,.5.3.8.9.9.9.1,3.9.2,9,.2h.2c3,0,5.1,0,6.2-.1,1.1,0,1.9-.2,2.5-.3.6-.1.9-.5.9-1s0-.4-.1-.8l-1.4-5.3,7-2.1,1.7,6.2c.3,1.1.4,2.2.4,3.3,0,1.9-.4,3.5-1.2,5s-2,2.5-3.5,3.2c-.9.4-1.8.7-2.7.9-.9.2-2,.3-3.3.3-1.3,0-3.4,0-6.4,0h-.9c-2.7,0-4.8,0-6.1,0h0ZM27.2,191.4h11.6v5.8h-11.6v-5.8Z"/>
      <path class="st9" d="M51.4,186.1l8.3-.4,1.1,28.5-8.3.4-1.1-28.4Z"/>
      <path class="st9" d="M59.2,215.9l3.8-1c1.1-.3,1.9-.6,2.3-.9s.6-.7.6-1.4,0-.7-.1-1.1l-1.7-11.7,7.3-1.1,1.2,8.6.2,1.3.5,3.4c.1,1.1.2,2.1.2,2.8,0,1.8-.3,3.3-.8,4.4-.6,1.1-1.4,2.1-2.6,2.9-1.2.8-2.8,1.4-4.8,2l-3.8,1-2.1-9.1h0Z"/>
      <path class="st9" d="M72.9,215.9l3.8-1c1.1-.3,1.9-.6,2.3-.9.4-.3.6-.7.6-1.4s0-.7-.1-1.1l-1.7-11.7,7.3-1.1.5,3.3.3,1.9c0,.4.2.7.5.9s.5.2.8.2h.8l.5,4.7-.5,4.7h-.8c0,1.9-.2,3.5-.8,4.7-.6,1.2-1.4,2.2-2.7,3s-2.8,1.5-4.9,2l-3.8,1-2.1-9.1h0Z"/>
      <path class="st9" d="M87.6,204.9h2.4c-.3-.9-.5-1.7-.4-2.5l.3-2.9c.2-1.6.7-2.9,1.6-4.1s2-2.1,3.3-2.7c1.3-.6,2.8-1,4.2-1s3.3.5,4.7,1.4,2.4,2.1,3.2,3.5,1.1,2.8,1,4.3v2.7c-.2.4-.2.9-.4,1.3h2.3l.5,4.7-.5,4.7h-4.3c-2,0-4.2-.5-6.7-1.7-1.2.5-2.5.9-3.8,1.2-1.3.3-2.5.4-3.6.4h-3.9v-9.4h0ZM93.4,184h11.6v5.8h-11.6v-5.8ZM97.6,203.6c.3.2.7.4,1.2.5,1-.3,1.6-.7,2.1-1.1l.2-1.4c0-.5-.1-1-.6-1.5-.4-.5-1-.7-1.6-.7s-1,.2-1.5.5c-.5.4-.7.8-.7,1.3v1.6c.3.3.7.6.9.8h0Z"/>
      <path class="st9" d="M109.5,204.9h.6c.8,0,1.4-.1,1.8-.3.4-.2.8-.6,1.1-1.2l2.9-5.7c.8-1.5,1.8-2.6,3.2-3.4,1.4-.8,2.9-1.2,4.5-1.2s2.9.3,4.1,1c1.6.8,2.8,2,3.7,3.5.9,1.5,1.3,3.3,1.3,5.3s-.6,4.4-1.7,6.7c-.7,1.5-1.7,2.6-2.8,3.6s-2.5,1.4-3.9,1.4-2.3-.3-3.4-.9l-4.5-2.3c-1.8,1.9-3.9,2.9-6.2,2.9h-.8v-9.4h0ZM125,206l.6-1.3c.3-.5.4-1,.4-1.5,0-.9-.4-1.5-1.2-1.9-.3-.2-.7-.2-1-.2-.9,0-1.6.5-2.1,1.5l-.8,1.4,4,2Z"/>
      <path class="st9" d="M143.7,214.7c1.3-.3,2.2-.6,2.7-.9.5-.3.8-.6.8-1.1-1.1.3-2.3.5-3.6.5s-3.4-.4-4.9-1.1c-1.5-.8-2.6-1.9-3.5-3.4-.9-1.5-1.3-3.4-1.3-5.6s.4-3.9,1.2-5.5c.8-1.6,2-2.9,3.4-3.9s3.1-1.4,4.9-1.4,3.1.4,4.5,1.2c1.4.8,2.6,1.9,3.5,3.5s1.6,3.4,1.8,5.6l1.2,9.4c.1.6.1,1.3.1,2,0,2.3-.6,4.1-1.8,5.4s-2.9,2.5-5,3.2c-2.2.8-5.1,1.6-8.8,2.3l-1.9-8.9c3.1-.6,5.3-1.1,6.6-1.4h0ZM141.7,204c.3.4.8.6,1.5.6s1.8,0,2.8-.2v-1c-.3-1-.6-1.8-1.1-2.3s-1-.8-1.7-.8-1.1.2-1.5.7c-.4.5-.6,1-.6,1.7s.2,1,.5,1.4h0Z"/>
    </g>
    <g class="st0">
      <g class="st10">
        <g>
          <path class="st1" d="M189.8,340c-11.4-7.3-22.1-15-31.8-23-13.1-10.7-25-22.5-35.4-34.9-.8-.9-1.8-2.2-2.8-3.4-3.5-4.3-6.8-8.8-10-13.3-1.4-1.9-2.8-4-4.4-6.4-9.9-15.2-18.1-31.2-24.4-47.8-14.4-38.1-19.8-81.2-15.9-128.1l2.9-35.1,34.5-7.1C141.7,32.9,172.4,6.3,177,1.2l37.9-53.5L253,1.2c4.7,5.1,35.4,31.7,74.6,39.8l34.5,7.1,2.9,35.1c3.8,45.3-1.1,87.1-14.5,124.3-6.4,18-15,35.2-25.5,51.2-1.5,2.2-3,4.5-4.8,7-2.9,4.2-6,8.3-9.5,12.6l-1.5,1.8c-.5.6-1,1.2-1.4,1.7-10.4,12.4-22.4,24.3-35.7,35.3-9.8,8-20.4,15.8-31.7,23l-25.2,16.1-25.2-16.1h0Z"/>
          <path class="st5" d="M196.2,329.9c-11-7-21.3-14.5-30.6-22.1-12.5-10.3-23.9-21.5-33.8-33.4-.8-1-1.8-2.1-2.8-3.3-3.3-4.1-6.5-8.3-9.5-12.6-1.3-1.8-2.7-3.9-4.2-6.2-9.4-14.4-17.2-29.6-23.1-45.3-13.8-36.5-18.9-77.8-15.1-122.9l2.2-26.1,25.7-5.3c44.6-9.2,78.6-40.3,81.6-44.2l28.4-40.1,28.6,40.2c2.9,3.8,37,35,81.6,44.1l25.7,5.3,2.2,26.1c3.6,43.6-1.1,83.7-13.9,119.2-6.1,17.1-14.3,33.5-24.2,48.7-1.4,2.1-2.9,4.3-4.6,6.6-2.8,4-5.8,8-9.1,12.1,0,0-1.1,1.3-1.4,1.7-.5.6-.9,1.1-1.4,1.7-9.9,11.9-21.4,23.2-34.1,33.7-9.4,7.7-19.6,15.2-30.5,22.1l-18.8,12-18.8-12h0Z"/>
          <path class="st6" d="M202.6,319.7c-10.6-6.8-20.5-13.9-29.4-21.2-12-9.8-22.8-20.6-32.3-31.9-.8-1-1.8-2.1-2.7-3.2-3.1-3.8-6.1-7.8-9-11.9-1.3-1.8-2.6-3.7-4.1-5.9-8.9-13.6-16.3-28-21.9-42.9-13.2-34.8-18-74.4-14.4-117.6l1.4-17.2,16.9-3.5c46.9-9.6,84.4-42.6,88.9-48.9l18.7-26.4,18.8,26.4c4.5,6.3,42.1,39.3,89,48.9l16.9,3.5,1.4,17.2c3.5,41.9-1,80.3-13.2,114.1-5.8,16.2-13.5,31.8-23,46.2-1.3,2-2.7,4.1-4.3,6.3-2.6,3.8-5.5,7.6-8.7,11.5l-.3.4c-.4.4-.7.8-1,1.2-.4.5-.9,1-1.3,1.6-9.4,11.3-20.4,22.1-32.6,32.2-9,7.4-18.9,14.6-29.3,21.2l-12.4,7.9-12.4-7.9h0Z"/>
          <path class="st4" d="M209.1,309.6c-10.2-6.5-19.6-13.3-28.1-20.4-11.4-9.4-21.8-19.6-30.7-30.3-.8-1-1.7-2.1-2.6-3.1-2.9-3.6-5.8-7.4-8.5-11.2-1.2-1.7-2.5-3.6-3.9-5.6-8.4-12.8-15.3-26.4-20.6-40.5-12.5-33.1-17.1-70.9-13.7-112.4l.7-8.2,8.1-1.7c50.4-10.3,90.6-45.6,96.3-53.7l9-12.6,9,12.6c5.8,8.1,46,43.4,96.4,53.7l8.1,1.7.7,8.2c3.3,40.1-.9,76.8-12.5,109.1-5.5,15.4-12.8,30.1-21.7,43.7-1.3,1.9-2.6,3.9-4,5.9-2.5,3.6-5.2,7.2-8.2,11v.2c-.5.5-.9.9-1.2,1.3-.4.5-.8,1-1.2,1.5-9,10.8-19.4,21.1-31,30.6-8.6,7.1-18.1,14-28.1,20.4l-5.9,3.8-5.9-3.8h0Z"/>
          <path class="st2" d="M306.2,191.4c-5.2,14.5-12,28.3-20.6,41.4-1.2,1.9-2.5,3.7-3.8,5.5-2.5,3.6-5.1,7-7.9,10.5-.8.9-1.5,1.9-2.3,2.8-8.6,10.3-18.4,20-29.6,29.2-8.3,6.9-17.3,13.4-27.1,19.6-9.7-6.2-18.7-12.7-27-19.6-11-9.1-20.8-18.7-29.3-28.9-.9-1-1.7-2-2.5-3-2.8-3.5-5.5-7-8-10.6-1.3-1.8-2.5-3.6-3.7-5.4-7.9-12.1-14.4-24.9-19.5-38.3-12.2-32.3-16.3-68.3-13-107.6,51.1-10.5,94.6-46.2,103.1-58.1,8.5,11.9,52,47.6,103.1,58.1,3.1,38-.5,72.9-11.9,104.4h0Z"/>
        </g>
      </g>
    </g>
    <rect class="st8" x="128.8" y="108.3" width="20.3" height="20.3" rx="5.8" ry="5.8"/>
    <g>
      <path class="st7" d="M134.7,114.4h8.1v8.1"/>
      <path class="st7" d="M134.7,122.5l8.1-8.1"/>
    </g>
  </g>
</svg>