<?xml version="1.0" encoding="UTF-8"?>
<svg id="Layer_2" data-name="Layer 2" xmlns="http://www.w3.org/2000/svg" viewBox="0 0 18.97 19.49">
  <defs>
    <style>
      .cls-1 {
        fill: #0210de;
      }
    </style>
  </defs>
  <g id="Layer_1-2" data-name="Layer 1">
    <path class="cls-1" d="M18.95,14.63c0,.05-.01.11-.02.16-.39,2.4-2.11,4.15-4.49,4.6-.09.02-.18.07-.26.1H4.81c-.13-.04-.26-.09-.39-.11C2,18.96.06,16.8.03,14.36-.02,11.41,0,8.45,0,5.5c0-.36,0-.72.08-1.07C.6,1.95,2.44.3,4.94.04c.22-.02.44-.03.66-.04,2.57-.01,5.14,0,7.71,0,.28,0,.57,0,.85.04.07,0,.15.02.22.03,2.35.4,4.12,2.07,4.48,4.43.05.32.08.65.09.98.03.68,0,1.37,0,2.05,0,.2,0,.4,0,.6,0,.09-.08.2-.15.27-.96.93-1.91,1.87-2.9,2.77-.85.77-1.7,1.54-2.63,2.2-1.13.79-2.44,1.01-3.8.66-.37-.1-.52.03-.6.34-.13.52-.24,1.04-.36,1.58-.04,0-.11.01-.18,0-1.16-.28-2.27-1.55-2.33-2.74-.02-.37-.14-.61-.4-.85-.69-.64-1-1.44-.85-2.39.1-.66.41-1.23.84-1.73,1.42-1.65,3.23-2.57,5.39-2.72,1.18-.08,2.24.26,3,1.26.31.41.29.69-.07,1.06-.11.11-.22.21-.35.29-1.24.79-2.6,1.15-4.06,1.03-1-.08-1.38-.55-1.36-1.54,0-.08-.02-.15-.04-.28-.62.23-.99.65-1.23,1.19-.39.86-.14,1.61.48,2.23-1.17,1.72-.8,3.86.76,4.39.16-2.04,1.61-2.96,3.24-3.71.53-.24,1.04-.5,1.57-.74,1.75-.77,2.73-2.09,2.88-4.01.15-1.91-.51-3.65-2.36-4.54-1.36-.65-2.75-.61-4.14-.07-4.33,1.66-7.25,6.94-6.69,10.95.22,1.53.87,2.81,2.13,3.74,2.51,1.85,6,1.67,8.55-.43,1.26-1.04,2.23-2.33,3.2-3.63.56-.75,1.13-1.5,1.71-2.24.19-.24.43-.43.73-.72,0,0,0,0,0,0,0,1.35,0,2.56,0,3.77,0,.36.03.73,0,1.08Z"/>
  </g>
</svg>