<?xml version="1.0" encoding="UTF-8"?>
<svg id="Layer_2" data-name="Layer 2" xmlns="http://www.w3.org/2000/svg" viewBox="0 0 104.84 22">
  <defs>
    <style>
      .cls-1 {
        fill: #fff;
      }

      .cls-2 {
        fill: #00b8db;
      }
    </style>
  </defs>
  <g id="Layer_1-2" data-name="Layer 1">
    <rect class="cls-2" x="6.02" y="0" width="92.79" height="22" rx="11" ry="11"/>
    <rect class="cls-2" x="99.7" y="8.87" width="4.26" height="4.26" transform="translate(22.05 75.22) rotate(-45)"/>
    <rect class="cls-2" x=".88" y="8.87" width="4.26" height="4.26" transform="translate(-6.9 5.35) rotate(-45)"/>
    <g>
      <path class="cls-1" d="M29.19,15.59l.76-.22c.58-.16.99-.31,1.22-.48.23-.16.35-.41.35-.75,0-.06,0-.15-.02-.28l-.49-3.52,1.53-.23.36,2.56.13.98c.03.29.05.5.05.61,0,.75-.22,1.34-.67,1.77-.45.43-1.13.77-2.05,1.01l-.76.22-.4-1.68ZM30.86,7.24h1.61v1.62h-1.61v-1.62Z"/>
      <path class="cls-1" d="M36.78,15.11c.39-.11.66-.25.81-.4.15-.16.22-.38.21-.67-.38.07-.81.1-1.31.1-.46,0-.87-.11-1.23-.32-.36-.21-.64-.51-.84-.89s-.3-.82-.3-1.3.1-.93.31-1.35.5-.76.87-1.01.79-.38,1.24-.38c.69,0,1.28.26,1.74.78.47.52.74,1.2.83,2.04l.21,1.99c.02.13.02.31.02.54,0,.62-.14,1.12-.43,1.49-.29.37-.73.67-1.32.89-.6.23-1.45.45-2.55.67l-.31-1.69c.96-.2,1.64-.35,2.04-.47ZM36.48,12.39c.42,0,.8-.03,1.14-.09l-.04-.39c-.04-.42-.15-.74-.33-.96-.18-.22-.41-.34-.69-.34s-.5.1-.66.29c-.16.2-.24.44-.24.72,0,.51.27.76.81.76Z"/>
      <path class="cls-1" d="M39.45,15.59l.76-.22c.58-.16.99-.31,1.22-.48.23-.16.35-.41.35-.75,0-.06,0-.15-.02-.28l-.49-3.52,1.53-.23.36,2.56.13.98c.03.29.05.5.05.61,0,.75-.22,1.34-.67,1.77-.45.43-1.13.77-2.05,1.01l-.76.22-.4-1.68Z"/>
      <path class="cls-1" d="M49.5,14.11c-.46-.02-.83-.05-1.09-.1s-.52-.13-.77-.23c-.43-.19-.76-.47-.99-.83s-.34-.79-.34-1.27c0-.28.04-.56.11-.86l.47-1.79,1.5.45-.48,1.85c-.04.15-.06.27-.06.36,0,.12.03.22.1.3.06.08.17.15.31.2.17.08.46.14.87.17.41.03,1.25.04,2.51.04h2.89c.31,0,.53-.04.64-.12.12-.08.17-.22.15-.42v-.02l-.13-1.51,1.54-.15.13,1.51v.02c.03.28.09.46.19.55s.3.13.61.13h.13l.1.87-.1.87h-.13c-.64,0-1.16-.16-1.56-.49-.42.33-.94.49-1.58.49h-2.95c-.92,0-1.62,0-2.08-.02ZM49.67,8.55h1.53v1.56s-1.54,0-1.54,0v-1.56ZM51.02,6.7h1.37v1.27h-1.37v-1.27ZM52.2,8.55h1.53v1.56s-1.54,0-1.54,0v-1.56Z"/>
      <path class="cls-1" d="M56.97,15.22h1.42v1.43h-1.42v-1.43ZM57.65,12.39h1.88c.34,0,.6-.05.77-.15.17-.1.25-.27.25-.51,0-.13-.03-.28-.07-.45l-.48-1.83,1.48-.44.52,1.91c.08.29.12.58.12.86,0,.47-.11.89-.33,1.24s-.53.63-.92.82-.84.29-1.34.29h-1.88v-1.74ZM59.48,15.22h1.42v1.43h-1.42v-1.43Z"/>
      <path class="cls-1" d="M64.24,13.9c-.33-.15-.58-.36-.77-.62s-.28-.55-.3-.86c0-.12-.01-.39-.01-.8h1.42c0,.23,0,.4.02.5,0,.1.05.17.13.2.08.04.2.06.36.06h1.25c.47,0,.7-.14.7-.42,0-.05,0-.09-.01-.11l-.04-.15-.91-3.59,1.51-.42.92,3.6c.11.43.2.72.29.86s.23.21.42.21h.6l.1.87-.1.87h-.6c-.54,0-.98-.18-1.34-.55-.45.37-1.03.55-1.75.55h-.77c-.42,0-.8-.08-1.13-.23Z"/>
      <path class="cls-1" d="M69.7,12.39h.26c.76,0,1.4-.02,1.92-.05.52-.03,1.03-.12,1.52-.26l2.3-.55-1.99-1.01c-.18-.1-.38-.15-.59-.15s-.41.05-.59.15-.33.25-.44.45l-.21.39-1.35-.85.23-.44c.26-.47.6-.83,1-1.08.41-.25.85-.38,1.31-.38s.94.13,1.39.38l3.09,1.79-.22,2.01-3.55.96c-.59.16-1.19.26-1.8.3-.61.04-1.29.07-2.05.07h-.25v-1.74Z"/>
    </g>
  </g>
</svg>