<?xml version="1.0" encoding="UTF-8"?>
<svg id="Layer_2" data-name="Layer 2" xmlns="http://www.w3.org/2000/svg" viewBox="0 0 54.6 51.56">
  <defs>
    <style>
      .cls-1 {
        fill: #0210de;
      }

      .cls-2 {
        fill: #ec1e24;
      }
    </style>
  </defs>
  <g id="Layer_1-2" data-name="Layer 1">
    <g>
      <path class="cls-1" d="M43.84,47.81c-.65.33-1.27.67-1.9.98-.98.47-2.02.68-3.11.66-.13,0-.26-.03-.38-.07-.4-.12-.78-.07-1.14.1-.24.11-.47.26-.68.41-.31.23-.41.56-.32.92.06.25.18.49.27.74-.45-.13-.86-.35-1.2-.68-.8-.75-1.07-1.69-.97-2.76.06-.63.3-1.2.68-1.7.03-.05.04-.14.02-.2-.24-.8-.37-1.61-.34-2.44.04-.9.26-1.74.83-2.46.4-.51.9-.88,1.48-1.16.92-.45,1.9-.66,2.97-.74-.23.12-.42.21-.61.31-.72.43-1.18,1.04-1.3,1.88-.1.7.21,1.23.73,1.67.67.57,1.43.7,2.27.54,1.16-.23,1.92-.94,2.43-1.97.37-.74.53-1.53.6-2.35.09-.98.03-1.96-.28-2.9-.41-1.25-1.21-2.2-2.28-2.94-1.27-.88-2.7-1.17-4.21-1.06-1.79.13-3.08,1.05-3.96,2.59-.65,1.14-1.07,2.36-1.39,3.63-.08.33-.15.66-.21,1-.01.07.02.17.07.22.86.93,1.4,2.01,1.6,3.26.25,1.63-.08,3.15-1.02,4.51-1,1.45-2.39,2.33-4.13,2.61-2.43.39-4.84-.67-6.2-2.76-.78-1.2-1.1-2.52-.97-3.95.11-1.31.61-2.46,1.46-3.46.14-.16.18-.29.14-.5-.27-1.33-.64-2.64-1.23-3.87-.33-.69-.72-1.34-1.26-1.9-.7-.73-1.55-1.16-2.54-1.32-2.65-.43-5.34.64-6.71,3.17-.37.67-.53,1.41-.6,2.17-.09,1-.01,1.99.27,2.96.24.83.62,1.6,1.3,2.16.83.68,1.79.95,2.82.66.8-.23,1.44-.74,1.62-1.62.13-.6-.07-1.16-.42-1.66-.34-.48-.7-.73-1.43-1.1.24.03.48.05.72.08.99.15,1.93.42,2.77.98,1.04.69,1.58,1.68,1.71,2.91.1.96-.03,1.89-.31,2.81-.03.1-.02.18.05.26.96,1.27.89,3.13-.17,4.27-.37.4-.83.66-1.37.83.08-.17.16-.32.22-.47.13-.36.17-.71-.08-1.04-.44-.57-1.39-.85-2.08-.65-.22.06-.46.04-.69.03-1.22-.03-2.34-.42-3.4-.99-.4-.21-.78-.44-1.18-.66-.24.24-.48.5-.75.73-.99.87-2.13,1.48-3.45,1.67-2.02.3-3.7-.36-5.06-1.87-.42-.47-.82-.96-1.03-1.55-.62-1.78-.75-3.59.03-5.36.54-1.25,1.41-2.23,2.67-2.8,1.17-.53,2.36-.5,3.54.01.86.38,1.58.93,2.11,1.73.9,1.39.62,3.6-.72,4.64-.64.5-1.38.79-2.17.93-.24.04-.48.05-.73.07-.2.01-.34.12-.38.33-.03.14.04.25.25.31.19.05.4.09.6.09.8-.02,1.57-.18,2.28-.56,1.05-.55,1.68-1.42,1.89-2.59.19-1.04.14-2.07-.26-3.07-.5-1.22-1.41-2.01-2.59-2.53-.21-.09-.42-.16-.64-.22-.11-.03-.15-.08-.13-.19.09-.56.16-1.13.28-1.68.34-1.46.91-2.82,1.84-4.01,1.39-1.77,3.18-2.93,5.36-3.48,1.07-.27,2.17-.3,3.27-.22,1.18.09,2.31.36,3.4.8,2.04.84,3.53,2.28,4.6,4.19.79,1.4,1.38,2.88,1.78,4.43.04.15.1.2.25.19.18-.01.36-.01.55,0,.14,0,.21-.03.24-.18.32-1.24.76-2.43,1.32-3.57.57-1.16,1.26-2.25,2.19-3.17,1.02-1.01,2.23-1.69,3.58-2.15,1.47-.49,2.99-.67,4.54-.54,2.54.21,4.64,1.31,6.35,3.17,1.08,1.18,1.77,2.59,2.16,4.13.17.67.26,1.36.39,2.04.03.14-.01.21-.16.25-.93.27-1.75.74-2.4,1.46-.75.83-1.1,1.83-1.15,2.94-.03.73.03,1.44.3,2.13.4,1.03,1.15,1.69,2.17,2.08.6.23,1.23.34,1.87.34.19,0,.38-.05.56-.1.13-.04.25-.13.21-.3-.04-.19-.17-.32-.34-.32-.64,0-1.24-.14-1.82-.37-.86-.34-1.59-.86-1.98-1.73-.73-1.62-.43-3.4,1.12-4.59.84-.64,1.77-1.04,2.84-1.06,1.03-.02,1.96.28,2.77.93,1.27,1.02,2.01,2.34,2.2,3.96.15,1.25,0,2.47-.44,3.64-.26.69-.73,1.27-1.25,1.79-.82.83-1.78,1.4-2.94,1.61-1.34.24-2.61,0-3.82-.61-.82-.42-1.54-.97-2.15-1.65-.04-.04-.08-.08-.1-.11ZM29.6,44.3c0-1.23-1-2.23-2.23-2.24-1.22-.01-2.23,1.01-2.24,2.24,0,1.22,1,2.23,2.22,2.23,1.24,0,2.25-1,2.25-2.23Z"/>
      <path class="cls-2" d="M24.57,4.17c-.19.95-.3,1.89-.29,2.85.02,1.44.6,2.6,1.7,3.52.12.1.25.2.38.29.03.02.06.04.11.07-.02-.06-.03-.1-.04-.14-.67-1.72-.99-3.51-.9-5.36.09-1.92.69-3.67,1.86-5.21.05-.06.1-.12.16-.19.08.41.16.79.24,1.17.45,1.97,1.26,3.78,2.45,5.41,1.01,1.39,2.15,2.67,3.37,3.89.79.79,1.35,1.74,1.77,2.77.33.81.51,1.65.44,2.53-.06.83-.38,1.56-.85,2.24-.41.6-.91,1.12-1.49,1.56-.07.06-.18.1-.28.1-4.19,0-8.37,0-12.56,0-.12,0-.2-.04-.27-.14-.85-1.2-1.34-2.54-1.45-4-.16-2.19.41-4.17,1.68-5.96.08-.12.18-.22.26-.33,0-.01.03-.02.05-.04.06.38.11.74.19,1.11.16.8.38,1.58.87,2.26.28.38.6.71,1.03,1.01-.5-1.64-.81-3.27-.49-4.94.31-1.66,1.03-3.14,2.06-4.47Z"/>
      <path class="cls-1" d="M27.33,35.08c-.21-.49-.41-.99-.62-1.47-.55-1.21-1.14-2.4-1.91-3.49-.76-1.08-1.75-1.92-2.89-2.57-.49-.28-.89-.64-1.04-1.2-.18-.66.16-1.15.84-1.2.18-.01.35,0,.53,0,3.38,0,6.76,0,10.14,0,.19,0,.38,0,.56,0,.68.05,1.03.54.84,1.2-.16.57-.56.94-1.05,1.22-.77.44-1.46.98-2.09,1.61-.72.73-1.27,1.59-1.74,2.5-.52,1.02-.98,2.07-1.47,3.11-.05.1-.06.21-.09.31Z"/>
      <path class="cls-1" d="M27.3,20.84c2.5,0,4.99,0,7.49,0,.61,0,.96.22,1.11.7.19.6.03,1.14-.44,1.47-.26.18-.53.28-.85.28-4.9,0-9.79,0-14.69,0-.54,0-.93-.28-1.16-.74-.23-.46-.16-.93.14-1.35.19-.26.48-.35.79-.35,2.54,0,5.07,0,7.61,0h0Z"/>
    </g>
  </g>
</svg>