<?xml version="1.0" encoding="UTF-8"?>
<svg id="Layer_1" xmlns="http://www.w3.org/2000/svg" version="1.1" viewBox="0 0 200.77 260.95">
  <!-- Generator: Adobe Illustrator 29.8.1, SVG Export Plug-In . SVG Version: 2.1.1 Build 2)  -->
  <defs>
    <style>
      .st0 {
        fill: none;
      }

      .st0, .st1 {
        stroke-width: 17px;
      }

      .st0, .st1, .st2 {
        stroke: #1c398e;
        stroke-miterlimit: 10;
      }

      .st3 {
        fill: #1c398e;
      }

      .st1, .st2 {
        fill: #fff;
      }

      .st2 {
        stroke-linecap: round;
        stroke-width: 11.49px;
      }

      .st4 {
        fill: #ec1e24;
      }
    </style>
  </defs>
  <path class="st1" d="M179.5,152.12c-4.52,12.64-10.46,24.63-17.9,35.96-1.08,1.63-2.16,3.23-3.31,4.81-2.16,3.1-4.44,6.12-6.83,9.09-.68.81-1.34,1.63-2.02,2.44-7.46,8.96-16.03,17.43-25.71,25.39-7.23,5.97-15.06,11.64-23.52,17.03-8.46-5.39-16.3-11.04-23.5-17.01-9.59-7.89-18.08-16.27-25.5-25.13-.74-.87-1.47-1.76-2.18-2.63-2.44-3.02-4.76-6.1-6.97-9.23-1.1-1.55-2.18-3.13-3.23-4.7-6.91-10.54-12.56-21.63-16.95-33.28-10.62-28.1-14.14-59.4-11.3-93.57,44.45-9.12,81.01-36.23,89.63-45.27,8.35,8.78,45.21,36.15,89.66,45.27,2.73,33.04-.47,63.43-10.36,90.81Z"/>
  <path class="st4" d="M91.23,66.06c-.61,3.03-.97,6.06-.94,9.15.05,4.63,1.94,8.35,5.45,11.29.39.33.8.63,1.21.94.09.07.18.12.36.23-.06-.21-.08-.33-.13-.45-2.16-5.53-3.16-11.26-2.89-17.19.29-6.18,2.2-11.79,5.98-16.73.15-.2.32-.38.53-.61.27,1.31.5,2.55.78,3.77,1.45,6.32,4.04,12.12,7.86,17.37,3.25,4.47,6.91,8.58,10.81,12.49,2.53,2.54,4.32,5.59,5.67,8.9,1.06,2.6,1.62,5.29,1.43,8.12-.18,2.67-1.22,5.01-2.71,7.18-1.32,1.92-2.93,3.59-4.78,5.01-.24.18-.59.31-.89.31-13.44.02-26.88.01-40.32.02-.39,0-.63-.12-.86-.44-2.73-3.86-4.31-8.14-4.67-12.85-.53-7.02,1.33-13.39,5.39-19.13.26-.37.56-.72.85-1.07.03-.04.08-.06.16-.12.2,1.2.37,2.39.6,3.55.51,2.57,1.21,5.08,2.78,7.24.89,1.22,1.91,2.29,3.29,3.24-1.62-5.27-2.59-10.49-1.58-15.87,1-5.33,3.29-10.08,6.61-14.34Z"/>
  <circle class="st1" cx="100.2" cy="198.96" r="14.14"/>
  <path class="st3" d="M131.36,217.41c-4.31-4.04-6.03-9.31-1.37-13.05-4.84-15.96,3.73-20.34,15.71-21.78-8.24,5.15-5.2,11.95,2.43,15.62l-2.43,5.11-14.34,14.09Z"/>
  <path class="st3" d="M70.23,217.41c4.31-4.04,6.03-9.31,1.37-13.05,4.84-15.96-3.73-20.34-15.71-21.78,8.24,5.15,5.2,11.95-2.43,15.62l2.43,5.11,14.34,14.09Z"/>
  <line class="st2" x1="80.12" y1="124.93" x2="120.48" y2="124.93"/>
  <g>
    <path class="st3" d="M120.48,139.75"/>
    <path class="st3" d="M100.3,134.01h20.18c3.17,0,5.75,2.57,5.75,5.75s-2.57,5.75-5.75,5.75c-10.25,1.36-16.98,10.6-20.18,24.2"/>
    <path class="st3" d="M100.3,134.01h-20.18c-3.17,0-5.75,2.57-5.75,5.75s2.57,5.75,5.75,5.75c10.25,1.36,16.98,10.6,20.18,24.2"/>
  </g>
  <path class="st0" d="M156.84,195.05c3.29-4.43,5.24-9.91,5.24-15.85,0-14.68-11.9-26.57-26.57-26.57s-26.57,11.9-26.57,26.57c0,4.04.9,7.86,2.51,11.29"/>
  <path class="st0" d="M86.05,195.05c3.29-4.43,5.24-9.91,5.24-15.85,0-14.68-11.9-26.57-26.57-26.57s-26.57,11.9-26.57,26.57c0,4.04.9,7.86,2.51,11.29"/>
</svg>