<?xml version="1.0" encoding="UTF-8"?>
<svg id="Layer_2" data-name="Layer 2" xmlns="http://www.w3.org/2000/svg" viewBox="0 0 18 22">
  <defs>
    <style>
      .cls-1 {
        fill: none;
        stroke: gray;
        stroke-linecap: round;
        stroke-linejoin: round;
        stroke-width: 2px;
      }
    </style>
  </defs>
  <g id="Layer_1-2" data-name="Layer 1">
    <g>
      <path class="cls-1" d="M17,12c0,5-3.5,7.5-7.66,8.95-.22.07-.45.07-.67-.01-4.17-1.44-7.67-3.94-7.67-8.94v-7c0-.55.45-1,1-1,2,0,4.5-1.2,6.24-2.72.44-.37,1.08-.37,1.52,0,1.75,1.53,4.24,2.72,6.24,2.72.55,0,1,.45,1,1v7Z"/>
      <path class="cls-1" d="M5,11h.01"/>
      <path class="cls-1" d="M9,11h.01"/>
      <path class="cls-1" d="M13,11h.01"/>
    </g>
  </g>
</svg>