<?xml version="1.0" encoding="UTF-8"?>
<svg id="Layer_2" data-name="Layer 2" xmlns="http://www.w3.org/2000/svg" viewBox="0 0 20.34 20.83">
  <defs>
    <style>
      .cls-1 {
        fill: #0210de;
      }
    </style>
  </defs>
  <g id="Layer_1-2" data-name="Layer 1">
    <path class="cls-1" d="M20.28,9.03c-.07-.6-.18-1.18-.36-1.76-.16-.58-.39-1.13-.66-1.66-.33-.65-.73-1.27-1.18-1.84-.41-.5-.85-.96-1.34-1.37-.49-.41-1.03-.78-1.59-1.1-.48-.26-.97-.51-1.49-.68-.46-.17-.94-.31-1.42-.4-.48-.11-.98-.14-1.47-.21h-1.15c-.16.03-.32.04-.48.06-1.94.19-3.82.97-5.33,2.2-.28.22-.55.46-.8.71-.56.57-1.06,1.19-1.47,1.86-.3.48-.56.99-.77,1.51-.23.54-.4,1.1-.52,1.67-.11.46-.17.93-.21,1.4-.05.78-.02,1.56.1,2.33.11.68.28,1.36.53,2,.26.69.6,1.35,1,1.97.53.8,1.16,1.53,1.89,2.15,1.32,1.14,2.94,1.93,4.66,2.26,1.95.39,4.01.19,5.84-.57.8.42,1.58.87,2.39,1.29h.16c.03-.05.07-.1.09-.16.04-.91.02-1.82.02-2.73,1.22-1.02,2.2-2.33,2.82-3.8.34-.78.57-1.61.7-2.45.14-.88.15-1.78.05-2.67ZM14.33,12.34c-.07.55-.24,1.08-.51,1.57-.68,1.17-1.86,2-3.14,2.4-1.81.58-3.89.22-5.39-.94-.42-.35-.87-.72-1.14-1.21.21.03.39.16.59.22.93.3,2.01.14,2.76-.49.53-.42.9-1.03,1.03-1.69.13-.61.03-1.24-.14-1.84-.15-.57-.37-1.12-.48-1.7-.09-.54-.1-1.1.01-1.64.14-.7.46-1.36.92-1.9.84-.95,2.11-1.52,3.39-1.4.01.01.04.03.05.04-.61.46-.93,1.3-.67,2.04.17.52.47.98.8,1.41.35.49.73.96,1.06,1.47.28.48.52.98.68,1.51.19.69.28,1.42.18,2.13Z"/>
  </g>
</svg>